<svg xmlns="http://www.w3.org/2000/svg" width="1200" height="630" aria-label="CF Ready - Cloudflare Go-Live Readiness" role="img" viewBox="0 0 1200 630"><rect width="1200" height="630" fill="#0B1628"/><g transform="translate(72,183) scale(4)"><rect width="64" height="64" fill="#FFF" rx="14"/><path fill="none" stroke="#00112C" stroke-linecap="round" stroke-linejoin="round" stroke-width="2.8" d="M20 40c-4.2 0-7.5-3.3-7.5-7.5 0-3.4 2.3-6.3 5.5-7.2-.9-4.7 4.1-8.8 9.3-8.3 2.3-3.5 6.2-5.5 10.5-5.5 5.8 0 10.8 4.1 11.8 9.8 3.5.9 6 4.2 6 7.9 0 4.6-3.7 8.3-8.3 8.3H20z"/><rect width="22" height="15" x="21" y="26" fill="#00112C" rx="3"/><circle cx="25" cy="29.5" r="1.5" fill="#F38020"/><circle cx="29" cy="29.5" r="1.5" fill="#5B6370"/><circle cx="33" cy="29.5" r="1.5" fill="#5B6370"/><text x="24" y="37.5" fill="#FFF" font-family="ui-monospace, monospace" font-size="7.5" font-weight="600">&gt;_</text><circle cx="44.5" cy="44.5" r="10.5" fill="#FFF"/><circle cx="44.5" cy="44.5" r="9" fill="#F38020"/><circle cx="44.5" cy="44.5" r="9" fill="none" stroke="#00112C" stroke-width="1.2"/><path fill="none" stroke="#FFF" stroke-linecap="round" stroke-linejoin="round" stroke-width="2.4" d="M39.5 44.5l3.2 3.2 6.3-6.8"/></g><text x="360" y="290" fill="#F8FAFC" font-family="Inter, ui-sans-serif, system-ui, sans-serif" font-size="72" font-weight="800" letter-spacing="-.03em">CF Ready</text><text x="360" y="360" fill="#94A3B8" font-family="Inter, ui-sans-serif, system-ui, sans-serif" font-size="32">Cloudflare Go-Live Readiness</text><rect width="560" height="64" x="360" y="410" fill="#152238" stroke="#F38020" stroke-width="2" rx="12"/><text x="388" y="452" fill="#FBBF24" font-family="ui-monospace, monospace" font-size="26">npx @orangecloud/cf-ready scan</text></svg>